<svg width="1024" height="768" viewBox="0 0 1024 768" fill="none" xmlns="http://www.w3.org/2000/svg">
  <rect width="1024" height="768" fill="url(#paint0_linear)" />
  <path d="M1024 474.5C893.5 418 815.5 587 706 561.5C596.5 536 571.5 417 455.5 433.5C339.5 450 310 539 204.5 533C99.0001 527 0 414.5 0 414.5V768H1024V474.5Z" fill="url(#paint1_linear)" fill-opacity="0.85" />
  <path d="M1024 587C904 571.5 829.5 644 731 625C632.5 606 601 536.5 508.5 552.5C416 568.5 391.5 641 304 640C216.5 639 139.5 569.5 0 568V768H1024V587Z" fill="url(#paint2_linear)" fill-opacity="0.55" />
  <defs>
    <linearGradient id="paint0_linear" x1="160" y1="38.5" x2="931.5" y2="768" gradientUnits="userSpaceOnUse">
      <stop stop-color="#E9EEFF" />
      <stop offset="1" stop-color="#D2DAFF" />
    </linearGradient>
    <linearGradient id="paint1_linear" x1="77.5" y1="383.5" x2="1010.5" y2="743" gradientUnits="userSpaceOnUse">
      <stop stop-color="#91A4FF" stop-opacity="0.42" />
      <stop offset="1" stop-color="#6C4CB1" stop-opacity="0.37" />
    </linearGradient>
    <linearGradient id="paint2_linear" x1="158.5" y1="530.5" x2="1008" y2="768" gradientUnits="userSpaceOnUse">
      <stop stop-color="#6C4CB1" stop-opacity="0.22" />
      <stop offset="1" stop-color="#9BB7FF" stop-opacity="0.2" />
    </linearGradient>
  </defs>
</svg>
