<svg width="640" height="480" viewBox="0 0 640 480" fill="none" xmlns="http://www.w3.org/2000/svg">
  <rect width="640" height="480" rx="36" fill="url(#paint0_linear)" />
  <rect x="60" y="64" width="520" height="352" rx="24" fill="white" stroke="#DAD4FF" stroke-width="4" />
  <rect x="100" y="116" width="180" height="28" rx="14" fill="#6C4CB1" fill-opacity="0.12" />
  <rect x="308" y="122" width="156" height="16" rx="8" fill="#6C4CB1" fill-opacity="0.16" />
  <rect x="308" y="154" width="120" height="12" rx="6" fill="#6C4CB1" fill-opacity="0.12" />
  <rect x="100" y="186" width="180" height="28" rx="14" fill="#F59A45" fill-opacity="0.16" />
  <rect x="308" y="192" width="156" height="16" rx="8" fill="#F59A45" fill-opacity="0.18" />
  <rect x="308" y="224" width="120" height="12" rx="6" fill="#F59A45" fill-opacity="0.14" />
  <rect x="100" y="256" width="180" height="28" rx="14" fill="#6C4CB1" fill-opacity="0.12" />
  <rect x="308" y="262" width="156" height="16" rx="8" fill="#6C4CB1" fill-opacity="0.16" />
  <rect x="308" y="294" width="120" height="12" rx="6" fill="#6C4CB1" fill-opacity="0.12" />
  <rect x="100" y="326" width="180" height="28" rx="14" fill="#6C4CB1" fill-opacity="0.12" />
  <rect x="308" y="332" width="156" height="16" rx="8" fill="#6C4CB1" fill-opacity="0.16" />
  <rect x="308" y="364" width="120" height="12" rx="6" fill="#6C4CB1" fill-opacity="0.12" />
  <circle cx="528" cy="326" r="68" fill="#F59A45" fill-opacity="0.2" />
  <circle cx="512" cy="330" r="48" fill="white" stroke="#E6E8FF" stroke-width="4" />
  <rect x="60" y="64" width="520" height="56" rx="24" fill="#6C4CB1" fill-opacity="0.08" />
  <circle cx="108" cy="92" r="10" fill="#6C4CB1" fill-opacity="0.7" />
  <circle cx="138" cy="92" r="10" fill="#F59A45" fill-opacity="0.7" />
  <circle cx="168" cy="92" r="10" fill="#6C4CB1" fill-opacity="0.4" />
  <defs>
    <linearGradient id="paint0_linear" x1="104" y1="40" x2="548" y2="452" gradientUnits="userSpaceOnUse">
      <stop stop-color="#F6F3FF" />
      <stop offset="1" stop-color="#ECECFF" />
    </linearGradient>
  </defs>
</svg>
